<?xml version="1.0" standalone="no"?><!DOCTYPE svg PUBLIC "-//W3C//DTD SVG 1.1//EN" "http://www.w3.org/Graphics/SVG/1.1/DTD/svg11.dtd"><svg t="1775734619476" class="icon" viewBox="0 0 1024 1024" version="1.1" xmlns="http://www.w3.org/2000/svg" p-id="7456" xmlns:xlink="http://www.w3.org/1999/xlink" width="200" height="200"><path d="M512 768a42.666667 42.666667 0 0 0-42.666667 42.666667 42.666667 42.666667 0 0 0 42.666667 42.666666h341.333333a42.666667 42.666667 0 0 0 42.666667-42.666666 42.666667 42.666667 0 0 0-42.666667-42.666667zM170.666667 170.666667a42.666667 42.666667 0 0 0-30.165334 12.501333 42.666667 42.666667 0 0 0 0 60.330667L366.336 469.333333l-225.834667 225.834667a42.666667 42.666667 0 0 0 0 60.330667 42.666667 42.666667 0 0 0 60.330667 0l256-256a42.666667 42.666667 0 0 0 0-60.330667l-256-256A42.666667 42.666667 0 0 0 170.666667 170.666667z" fill="#000000" p-id="7457"></path></svg>